<svg xmlns="http://www.w3.org/2000/svg" xmlns:xlink="http://www.w3.org/1999/xlink" width="77" height="55" viewBox="0 0 77 55">
  <defs>
    <clipPath id="clip-path">
      <rect id="Rectangle_1281" data-name="Rectangle 1281" width="77" height="55" transform="translate(-0.268 -1.154)"/>
    </clipPath>
  </defs>
  <g id="Mask_Group_4" data-name="Mask Group 4" transform="translate(0 1.154)" clip-path="url(#clip-path)">
    <g id="MS_RVB_Master" transform="translate(0 -1.607)">
      <path id="Path_1778" data-name="Path 1778" d="M39.125,3.857C21.311,5.518,7.8,13.559,7.8,23.23c0,6.586,6.268,12.415,15.893,15.988.133.05.185-.027.078-.115-4.6-3.8-7.393-8.787-7.393-14.251,0-10.187,9.708-18.722,22.753-20.968C39.247,3.864,39.247,3.846,39.125,3.857ZM25.206,7.7c-7.45,3.834-12.211,9.689-12.211,16.248,0,5.221,3.016,9.994,8,13.66.279.2.25.249-.044.067-5.877-3.623-9.944-8.494-9.944-13.878,0-6.577,5.837-12.442,14.142-16.139C25.5,7.506,25.529,7.535,25.206,7.7Zm52.93,4.892a3.565,3.565,0,0,1-.162.676c-.208.6-.44,1.172-.694,1.741l.02-.041A13.484,13.484,0,0,1,80.971,23.8c0,5.585-4.377,10.619-10.612,14.281-.076.044-.085.034-.012-.016,5.364-3.721,8.639-8.673,8.639-14.112a14.424,14.424,0,0,0-2.3-7.683l.025-.051c-.55,1.109-1.186,2.269-1.91,3.632a16.034,16.034,0,0,1,.8,5c0,5.542-2.872,10.594-7.59,14.41-.041.034-.023.064.028.046,9.763-3.566,16.139-9.438,16.139-16.079C84.181,19.311,81.96,15.661,78.136,12.594ZM52.823,3.855c-.112-.011-.115.005-.005.025a34.824,34.824,0,0,1,11.9,4.28,29.221,29.221,0,0,1,3.941-.777A60.591,60.591,0,0,0,52.823,3.855Z" transform="translate(-7.797 -2.692)" fill="#fff"/>
      <path id="Path_1779" data-name="Path 1779" d="M43.382,28.775l2.51-.4-.142-5.384-3.77,1.15,1.376,1.772.012,1.3h.009s.49-.073.618-.1a.175.175,0,0,0,.153-.121.039.039,0,0,1,0-.014c-.02-.1-.179-1-.245-1.3a.259.259,0,0,1,.041-.238c.053-.089.178-.3.293-.488.028-.046.05-.076.076-.011a3.028,3.028,0,0,1,.273.286c.016.041.5,1.789.508,1.8s.22.144.224.227c0,.053.005.124,0,.17.027.051-.035.122-.067.151s-.094.078-.085.107l.075.24s.021.069-.064.083l-2.554.422.328.1.43-.069,0,.32ZM30.752,19.4l-.082-1.312L28.83,19.155l.05,1.253Zm-1.757,3.877,1.953-.907L30.866,21.1l-1.919.962Zm2.443-5.632.094,1.337,1.876-1.008-.153-1.381Zm-2.782.034s-.955-1.168-1.15-1.4a2.523,2.523,0,0,0-2.029-.273c-1.021.2-1.28.55-1.28.753s.012,3.664.012,3.664Zm5.1,3.387-.147-1.338-1.956.982L31.743,22ZM39.837,4.01l1.337.277L41.4,7.175l-.234.16s-.71,2.4-.888,3.5c2.112.211,3.28.447,3.28.447s-.836-2.853-1-3.435-.3-1.031-.566-.941l-.009.005-.339-2.528,1.321.273L42.928,4.4l-1.321-.288-.135-.992-.208-.046-.179.112.066.825-1.338-.289ZM19.53,27.676l1.876-.872.011-.959-1.844.927Zm4.541-3.161-1.871.939-.021.992,1.892-.879V24.515Zm42.312-17c-5.334,0-13.97,3.735-17.377,5.551l-.288.144-.062.041c-.966-.366-5.382-1.873-13.067-2.017a2.488,2.488,0,0,0-1.42.433c-.332.206-.634.4-.859.541L33,12.421l.279,2.4,1.764-1.062.93,8.135-.02,0L24.841,26.643s5.455-.517,6.628-.6,4.441-.4,5.3-.572c0,0,.774-1.791,1.475-3.24h0l.247-.5c.048-.1.094-.188.14-.275l-.005,0s0-.005,0-.009c10.974-5.758,19.471-10.83,28.515-10.258,1.688.234,4,.856,2.313,5.695l-.1.355c-1.354,4.04-3.756,10.881-5.973,19.746,4.187-12.144,7.226-16.613,9.161-20.566C74.555,12.462,76.445,7.514,66.382,7.514ZM37,13.472l-.185-1.464q.682.027,1.388.071l.186,1.427C37.908,13.484,37.443,13.473,37,13.472Zm1.848.051-.185-1.415c.465.034.935.075,1.4.121l.181,1.383C39.773,13.576,39.3,13.546,38.845,13.523Zm1.86.126-.179-1.374c.474.05.946.1,1.411.167l.176,1.346C41.644,13.734,41.174,13.688,40.705,13.649Zm1.869.192L42.4,12.5c.483.067.957.14,1.417.218l.17,1.308C43.528,13.962,43.054,13.9,42.575,13.841Zm1.878.263-.17-1.3c.5.091.978.186,1.431.288l.163,1.273C45.425,14.272,44.948,14.185,44.453,14.1Zm1.882.325-.17-1.232c.531.128,1.015.264,1.443.406l.023.165C47.2,13.988,46.767,14.206,46.334,14.428ZM24.071,21.912l-1.821,1.054-.018,1.017L24.071,23Zm4.255-1.291-1.1.579-.021-1.448-.288.167-1.186.694.021,1.365-1.109.614.028,1.718,1.118-.559.011,1.351,1.509-.712-.032-1.383,1.1-.55Zm-11.9,12.247a.941.941,0,0,0,.8.777l-.037-3.028,1.582-.635.066-1.347-2.466,1.083Z" transform="translate(-3.547 -3.077)" fill="#fff"/>
      <path id="Path_1780" data-name="Path 1780" d="M42.989,17.921Zm.648,2.267a.106.106,0,0,1,.085.016l.279.217a.067.067,0,0,1,.027.048h0c0-.037,0-.124,0-.16a.154.154,0,0,0-.073-.147c-.062-.046-.147-.119-.147-.119l-.478-1.7a.406.406,0,0,0-.153-.234L43,17.93a.274.274,0,0,1,.032.078C43.06,18.12,43.637,20.188,43.637,20.188Zm11.421-.433c-4.441.669-12.971,2.022-12.971,2.022l0-.309-.433.069-.337-.1h0a.1.1,0,0,1-.087-.069l-.057-.247c-.092-.051-.17-.11-.014-.346a.21.21,0,0,0,.03-.176s-.295-.909-.476-1.461l.048,2.714S28.33,24.062,19.176,26.809c-.257.078-.247.124.018.069,3.96-.822,8.915-1.693,17.045-2.814,1.512-.185,5.441-.639,6.05-.7,6.211-.593,11.487-1.088,13.7-1.22,4.644-.277,7.661-.312,8.18.218q.447-1.523.88-2.918C62.311,18.415,58.731,19.2,55.058,19.755Zm-13.933-.9a.269.269,0,0,1,.144.144l.527,1.205s.041.2.225.174l.032-.005h.016a.064.064,0,0,1,.062.076l-.036.222.465-.067s.028-.188.034-.24a.082.082,0,0,1,.08-.082.225.225,0,0,0,.172-.279.2.2,0,0,1-.176.121l-.595.1-.009-1.291-1.39-1.775.027,1.493C40.839,18.715,41.054,18.827,41.125,18.857Z" transform="translate(-2.245 3.909)" fill="#fff"/>
      <path id="Path_1781" data-name="Path 1781" d="M35.149,40.124a6.135,6.135,0,0,1-.039.643l-.479,4.64h2.084a.943.943,0,0,1-.375-.829,7.787,7.787,0,0,1,.055-.792l.334-3.115a8.848,8.848,0,0,0,.055-1c0-1.124-.71-1.779-1.954-1.779a2.9,2.9,0,0,0-2.137.895l.32-3.048H30.872a.831.831,0,0,1,.442.8,2.6,2.6,0,0,1-.014.32l-.053.4-.683,6.552c-.119,1.067-.2,1.282-.614,1.59h2.54a.954.954,0,0,1-.387-.829,3.282,3.282,0,0,1,.027-.36l.039-.43.27-2.581a2.562,2.562,0,0,1,.52-1.562,1.419,1.419,0,0,1,1.124-.549A.983.983,0,0,1,35.149,40.124ZM23.321,32.855a4.4,4.4,0,0,1,.1-.9l.715-4.548,2.137,4.848,2.182-3.25c.2-.312.385-.584.513-.8l.414-.671.128-.2-.286,4.8c-.057,1.028-.229,1.427-.714,1.8h3.222c-.556-.328-.669-.628-.669-1.7,0-.156.014-.486.014-.726L31.32,26.3a1.956,1.956,0,0,1,.9-1.867H29.635L26.658,29,24.59,24.428H22.1a1.342,1.342,0,0,1,.5,1.17,5.959,5.959,0,0,1-.085,1l-.982,5.533c-.186,1.042-.414,1.454-1.07,1.811h3.351A1.133,1.133,0,0,1,23.321,32.855Zm1.306,12.369a6.51,6.51,0,0,0,1.585.243,3.168,3.168,0,0,0,3.463-3.094c0-1.241-.527-1.9-2.395-2.952-.884-.513-1.1-.754-1.1-1.241a1.194,1.194,0,0,1,1.326-1.125,2.239,2.239,0,0,1,2.038,1.354l.144-2.95a.765.765,0,0,1-.6.257,2,2,0,0,1-.4-.059,4.819,4.819,0,0,0-1.1-.126,3.09,3.09,0,0,0-3.337,2.98c0,1.054.43,1.624,1.855,2.48,1.468.868,1.638,1.056,1.638,1.653a1.32,1.32,0,0,1-1.456,1.3,2.838,2.838,0,0,1-2.466-1.724l-.085,3.108a.392.392,0,0,1,.355-.215,1.14,1.14,0,0,1,.288.043ZM38.656,30.332c.025-.36.041-.776.041-.976,0-1.912-1.044-3.073-2.769-3.073-2.151,0-3.77,1.885-3.77,4.4A2.981,2.981,0,0,0,35.232,34a6.257,6.257,0,0,0,.964-.08l.454-.067c.254-.028.454-.051.575-.051a.5.5,0,0,1,.442.2l.671-2.379a3.31,3.31,0,0,1-2.489,1.175,1.991,1.991,0,0,1-2.017-2.112c0-.067,0-.188.012-.35h4.811ZM35.7,27.417c.831,0,1.232.481,1.3,1.589l.012.121h-2.98C34.282,28.019,34.872,27.417,35.7,27.417Zm4.626,10.674H38.184a.858.858,0,0,1,.428.8,4.982,4.982,0,0,1-.055.722l-.442,4.2c-.119,1.07-.2,1.283-.614,1.592h2.54a.947.947,0,0,1-.375-.829,7.233,7.233,0,0,1,.053-.79Zm5-.2a2.416,2.416,0,0,0-1.74.776l.053-.575H41.567a.867.867,0,0,1,.426.817,5.016,5.016,0,0,1-.053.71l-.694,6.63c-.108,1.056-.2,1.283-.616,1.592h2.54a.925.925,0,0,1-.389-.827c0-.083.016-.243.028-.364l.039-.43.122-1.1a1.8,1.8,0,0,0,1.31.483c1.882,0,3.406-2.033,3.406-4.56C47.69,39.163,46.742,37.891,45.325,37.891ZM44,44.4a.958.958,0,0,1-.911-.534l.428-4.051a1.494,1.494,0,0,1,1.164-.628c.829,0,1.3.708,1.3,1.94C45.98,43.014,45.137,44.4,44,44.4ZM54.682,37.99a.144.144,0,0,0,.1-.126c0-.1-.062-.144-.188-.144a.9.9,0,0,0-.137.014c0,.023,0,.041,0,.082v.266c0,.067,0,.114,0,.146a.673.673,0,0,0,.082,0c.014,0,.018-.005.018-.021v-.185h.014c.027,0,.041.007.066.051a.738.738,0,0,0,.069.121.077.077,0,0,0,.071.036.155.155,0,0,0,.064-.009v0a.74.74,0,0,1-.083-.124A.71.71,0,0,0,54.682,37.99Zm-.055-.034a.248.248,0,0,1-.076.005v-.179a.2.2,0,0,1,.036,0,.086.086,0,0,1,.091.094A.088.088,0,0,1,54.627,37.956ZM54.6,37.5a.479.479,0,1,0,.479.479A.48.48,0,0,0,54.6,37.5Zm0,.88a.4.4,0,1,1,.4-.4A.4.4,0,0,1,54.6,38.382Zm-3.421,2.5c-.856-.4-.976-.522-.976-.895,0-.538.442-.9,1.111-.9a2,2,0,0,1,1.843,1.243l.215-2.528a.633.633,0,0,1-.508.227,3.773,3.773,0,0,1-.561-.053L52,37.942a6.406,6.406,0,0,0-.749-.053A2.421,2.421,0,0,0,48.538,40.2c0,.95.373,1.392,1.7,2.02,1.085.522,1.269.694,1.269,1.189a1.02,1.02,0,0,1-1.134.989,2.365,2.365,0,0,1-2.206-1.685l-.108,2.915a.723.723,0,0,1,.538-.215,3.465,3.465,0,0,1,.5.053,7.137,7.137,0,0,0,1.328.135,2.479,2.479,0,0,0,2.767-2.462,1.841,1.841,0,0,0-.524-1.362A4.505,4.505,0,0,0,51.183,40.885Zm3.957-13.6a2.888,2.888,0,0,1-.012.321l-.041.4-.241,2.285c-.131,1.271-.651,1.885-1.578,1.885a.989.989,0,0,1-1.1-1.122c0-.227.014-.375.027-.561l.426-4.012H50.485a.858.858,0,0,1,.43.8,2.529,2.529,0,0,1-.014.321l-.039.4-.321,2.941c-.014.2-.025.4-.025.563a1.865,1.865,0,0,0,1.951,1.967,3.078,3.078,0,0,0,2.139-.882l-.067.559a1.884,1.884,0,0,1-2.178,1.859,2.769,2.769,0,0,1-2.286-.962l.067,2.448a.893.893,0,0,1,.708-.334c.08,0,.186.014.28.025l.32.041a7.461,7.461,0,0,0,1.125.08,3.483,3.483,0,0,0,2.769-.991,4.193,4.193,0,0,0,.854-2.593l.657-6.245H54.714A.857.857,0,0,1,55.14,27.284ZM39.828,35.217a1.032,1.032,0,0,0-1.015,1,.8.8,0,0,0,.817.829,1.035,1.035,0,0,0,1.017-1.015A.8.8,0,0,0,39.828,35.217Zm.149-7.212-.44,4.2c-.121,1.069-.2,1.283-.614,1.59h2.538a.938.938,0,0,1-.373-.829,7.141,7.141,0,0,1,.051-.788l.268-2.54c.133-1.218.747-1.981,1.615-1.981a1.288,1.288,0,0,1,.939.376l.186-1.738a1.853,1.853,0,0,0-.268-.016,3.138,3.138,0,0,0-2.315,1.205l.108-1H39.6a.868.868,0,0,1,.426.815,2.314,2.314,0,0,1-.014.307Zm8.066-.426a1.483,1.483,0,0,1,1.456.976l.066-2.393a.606.606,0,0,1-.522.254,1.389,1.389,0,0,1-.389-.053,4.734,4.734,0,0,0-.774-.08c-2.1,0-3.733,1.885-3.733,4.333,0,1.977,1.179,3.383,2.837,3.383a6.1,6.1,0,0,0,.921-.08l.28-.053a3.135,3.135,0,0,1,.362-.027.462.462,0,0,1,.32.107l.428-2.286A1.984,1.984,0,0,1,47.6,32.7c-1.056,0-1.74-.841-1.74-2.153C45.861,28.861,46.811,27.579,48.043,27.579Z" transform="translate(-1.517 7.517)" fill="#fff"/>
    </g>
  </g>
</svg>
